<svg xmlns="http://www.w3.org/2000/svg" width="220" height="48" viewBox="0 0 220 48"><svg width="48" height="48" viewBox="0 0 48 48" fill="none"><path d="M24 5C13 5 5 13 5 24h13c0-4 2-6 6-6V5Z" fill="#254D3E"/><path d="M43 24C43 13 35 5 24 5v13c4 0 6 2 6 6h13Z" fill="#9EBA87"/><path d="M24 43c11 0 19-8 19-19H30c0 4-2 6-6 6v13Z" fill="#254D3E"/><path d="M5 24c0 11 8 19 19 19V30c-4 0-6-2-6-6H5Z" fill="#9EBA87"/></svg><text x="60" y="35" font-family="Arial,sans-serif" font-size="34" font-weight="700" letter-spacing="-1.5" fill="#254D3E">shoda<tspan font-size="18" dx="7" letter-spacing="0">AI</tspan></text></svg>